<svg width="5" height="9" viewBox="0 0 5 9" fill="none" xmlns="http://www.w3.org/2000/svg">
<path d="M4.89844 1.25C4.89844 1.17969 4.86719 1.11719 4.82031 1.07031L4.42969 0.679687C4.38281 0.632812 4.3125 0.601562 4.25 0.601562C4.1875 0.601562 4.11719 0.632812 4.07031 0.679687L0.429688 4.32031C0.382813 4.36719 0.351563 4.4375 0.351563 4.5C0.351563 4.5625 0.382813 4.63281 0.429688 4.67969L4.07031 8.32031C4.11719 8.36719 4.1875 8.39844 4.25 8.39844C4.3125 8.39844 4.38281 8.36719 4.42969 8.32031L4.82031 7.92969C4.86719 7.88281 4.89844 7.8125 4.89844 7.75C4.89844 7.6875 4.86719 7.61719 4.82031 7.57031L1.75 4.5L4.82031 1.42969C4.86719 1.38281 4.89844 1.3125 4.89844 1.25Z" fill="white"/>
</svg>
